# xmcd
#
# Track frame offsets: 
#        150
#        19541
#        35164
#        52046
#        70880
#        87895
#        111435
#        129662
#        148005
#        169971
#        188416
#        208875
#        228241
#
# Disc length: 3219 seconds
#
# Revision: 4
# Processed by: cddbd v1.5.2PL0 Copyright (c) Steve Scherf et al.
# Submitted via: ExactAudioCopy v0.99pb1
#
DISCID=bc0c910d
DTITLE=Валерия - Анна
DYEAR=1995
DGENRE=Pop
TTITLE0=Москва слезам не верит
TTITLE1=С добрым утром
TTITLE2=Обычные дела
TTITLE3=Самолет
TTITLE4=Золотая рыбка
TTITLE5=Осени дым
TTITLE6=Над Москвою чистое небо
TTITLE7=Птицы летят на юг
TTITLE8=Бессонница
TTITLE9=Небеса
TTITLE10=Не уходи
TTITLE11=Воскресение
TTITLE12=Кода (инструментал)
EXTD=
EXTT0=
EXTT1=
EXTT2=
EXTT3=
EXTT4=
EXTT5=
EXTT6=
EXTT7=
EXTT8=
EXTT9=
EXTT10=
EXTT11=
EXTT12=
PLAYORDER=
